<svg xmlns="http://www.w3.org/2000/svg" xmlns:xlink="http://www.w3.org/1999/xlink" viewBox="471 -6 150 150"><defs><style>.a{clip-path:url(#b);}.b{fill:#0093d3;}</style><clipPath id="b"><rect x="471" y="-6" width="150" height="150"/></clipPath></defs><g id="a" class="a"><g transform="translate(471 1)"><path class="b" d="M230.593,195.71l-32.314,14.323a46.943,46.943,0,0,1-4.935,16.507l38.079-16.9,35.153,10.83v73.624L230.593,283l-50,22.183-37.773-7.6V250.077a136.993,136.993,0,0,1-13.1-18.865v77.162l52.4,10.524,49.345-21.834,48.253,14.847V210.819Z" transform="translate(-129.72 -182.784)"/><path class="b" d="M158.446,192.75a28.166,28.166,0,0,0-28.166,28.166c0,19.083,28.166,45.109,28.166,45.109s28.166-26.2,28.166-45.109a28.166,28.166,0,0,0-28.166-28.166Zm0,36.812a9.083,9.083,0,1,1,9.083-9.083A9.083,9.083,0,0,1,158.446,229.562Z" transform="translate(-127.835 -192.75)"/><path class="b" d="M168.457,235.5l1.179,8.734c10.437-1.441,17.773-8.035,24.41-14.629l-6.157-6.2C182.038,229.128,176.187,234.543,168.457,235.5Zm-29.651-10.48-4.367,7.555a170,170,0,0,0,15.546,8.341,44.5,44.5,0,0,0,9.607,3.013l1.572-8.734a35.722,35.722,0,0,1-7.729-2.4,163.681,163.681,0,0,1-14.629-7.773Zm55.371-7.948,5.982,6.376c5.764-5.415,9.694-7.249,13.93-6.856a32.535,32.535,0,0,1,5.546,1.048l2.4-8.384a41.611,41.611,0,0,0-7.031-1.354,26.856,26.856,0,0,0-20.83,9.17Zm52.009,16.594a41.746,41.746,0,0,0-15.065-20.306l-4.76,7.336a33.843,33.843,0,0,1,11.79,16.419c.48,1.092.917,2.1,1.31,2.969l7.9-3.755a24.4,24.4,0,0,0-1.31-2.62Z" transform="translate(-113.829 -141.748)"/></g></g></svg>